<svg width="572" height="475" viewBox="0 0 572 475" xmlns="http://www.w3.org/2000/svg"><g transform="matrix(-1 0 0 1 572 0)" fill="none" fill-rule="evenodd"><path d="M185.843 406.829c-92.94 13.786-226.837-70.775-173.78-133.194C65.12 211.216 39.818.052 207.01.052c76.907 0 90.264 90.45 230.909 99.37 64.664 4.1 108.536 19.096 127.465 79.828 18.93 60.733-3.556 250.987-105.71 264.99-53.143 7.286-83.963-39.276-120.962-46.896-66.534-13.703-59.927-4.302-152.868 9.485z" fill="#F1F2FA" fill-rule="nonzero"/><path d="M46.346 183.34l-9.644 6.509a3 3 0 0 0-.808 4.164c.013.02 12.325 16.941 36.936 50.764l23.568 32.388a3 3 0 0 0 4.19.66l53.089-39.106a3 3 0 0 0 .734-4.053l-7.557-11.597-7.003-10.747-3.44-5.28-3.859-5.92-32.714-50.206a3 3 0 0 0-4.151-.876l-28.828 19.455-4.213 2.844m199.911-13.119c22.626-3.746 46.604-16.942 64.738-21.7-8.059-8.482-16.874-26.898-20.59-26.898-3.715 0-119.768 27.973-126.72 26.899-3.604-.557 12.906 15.809 17.702 40.91 19.25-2.786 37.066-7.958 50.308-12.948" fill="#C6CBDE" fill-rule="nonzero"/><path d="M86.958 106.036c26.99-16.668 54.055-28.475 81.194-35.422 27.14-6.947 55.794-10.592 85.963-10.936" stroke="#8189A9" stroke-width="2.4" stroke-linecap="round"/><path d="M486.24 176c48.423 47.112-15.493 94.224-69.75 112.91m-20.348 5.65c-1.374.347-3.39.848-4.702 1.132m-4.108 1.14c-.852.21-3.185.671-4.685.946" stroke="#2B2D38" stroke-width="2.4" stroke-linecap="round"/><path d="M300.317 34.66c-8.334 0-12.507-10.512-11.897-10.512.61 0-10.722 14.111-1.75 14.111 8.97 0 19.803-10.293 13.647-4.802-4.8 4.282-12.775 5.335-14.957 4.802-1.345-.328 3.06.5 7.372-.712 5.71-1.604 8.967-2.888 7.585-2.888z" fill="#C6CBDE" fill-rule="nonzero"/><path d="M84.592 281.057a96.48 96.48 0 0 0 3.303 2.84m4.762 3.678c21.99 15.99 58.032 29.26 115.343 29.26" stroke="#2B2D38" stroke-width="2.4" stroke-linecap="round"/><path d="M215.106 315.22c0-3.12.017-6.188.051-9.202m.113-7.061c.318-15.331 1.102-35.213 2.351-47.614a2.4 2.4 0 0 1 2.388-2.16h127.245a2.4 2.4 0 0 1 2.4 2.4c-1.467 19.708-2.197 46.999-2.197 70.02 0 23.378.753 35.93 2.259 72.855a2.4 2.4 0 0 1-2.924 2.44c-24.575-5.516-44.865-6.573-60.87-3.172-16.227 3.447-38.172 4.762-65.834 3.945-.752-.023-23.34-15.431-23.943-26.704-2.104-39.387 19.38-28.332 19.361-28.842M432.473 138.4c18.956 4.064 33.626 8.592 44.009 13.583 4.075 3.52-10.573 69.167-76.541 87.665-1.408-9.849-4.321-18.805-8.741-26.868l41.273-74.38z" fill="#C6CBDE" fill-rule="nonzero"/><path d="M204.706 301.62c0-3.12.017-6.188.051-9.202m.113-7.061c.318-15.331 1.102-29.197 2.351-41.597a2.4 2.4 0 0 1 2.388-2.16h127.245a2.4 2.4 0 0 1 2.4 2.4c-1.467 19.707-2.197 40.982-2.197 64.003 0 23.378.753 53.53 2.259 90.455a2.4 2.4 0 0 1-2.924 2.44c-24.575-5.516-44.865-6.573-60.87-3.172-16.227 3.447-38.172 4.762-65.834 3.945-.752-.023-13.051-3.345-13.654-14.617-.37-6.927-.456-42.117 0-47.15 2.142-23.588 9.088-10.958 9.072-11.38" fill="#FFF" fill-rule="nonzero"/><rect fill="#AFEEE0" x="216" y="343.2" width="44" height="12" rx="2.4"/><rect fill="#AFEEE0" x="213.6" y="368" width="49.6" height="12" rx="2.4"/><path d="M324 268.21l-.379.127a18.611 18.611 0 0 0-.8-1.58 22.275 22.275 0 0 0-.947-1.536 30.13 30.13 0 0 0-.948-1.326c-.308-.407-.575-.709-.8-.906-.59-.56-1.228-.933-1.915-1.115-.688-.183-1.565-.288-2.632-.316-.533 0-.997-.007-1.39-.021a33.03 33.03 0 0 0-1.178-.021h-2.779c0 .702-.007 1.656-.021 2.863-.015 1.207-.022 2.47-.022 3.79v16.463c0 .814.022 1.593.064 2.336.042.744.175 1.27.4 1.58.42.617 1.017 1.038 1.79 1.263.771.224 1.466.393 2.083.505v.42h-13.684v-.42c.73-.084 1.432-.225 2.105-.421.674-.197 1.334-.66 1.98-1.39.14-.14.245-.372.315-.694.07-.323.126-.688.169-1.095.042-.407.07-.85.084-1.327.014-.477.02-.94.02-1.389 0-.393.008-.912.022-1.558.014-.646.028-1.361.042-2.147.014-.786.021-1.6.021-2.442v-16.337h-2.778c-.366 0-.752.007-1.159.02-.407.015-.877.022-1.41.022-1.067.028-1.944.154-2.632.379-.688.224-1.326.617-1.916 1.179-.224.196-.484.491-.779.884-.294.393-.603.821-.926 1.284-.323.463-.632.962-.926 1.495a9.34 9.34 0 0 0-.695 1.558l-.379-.126 1.263-8c.646.14 1.242.252 1.79.336.547.085 1.34.14 2.379.169 1.066.028 2.02.049 2.863.063.842.014 1.656.021 2.442.021h8c.842 0 1.656-.007 2.442-.021l2.442-.042c.842-.014 1.797-.021 2.863-.021.927-.028 1.691-.105 2.295-.232a21.746 21.746 0 0 0 1.874-.484l1.347 8.21z" fill="#C6CBDE"/><path d="M226 307.58h93.6m-48.8 17.747h48.8m-51.974 19.962h51.948m-51.948 22.4h51.948" stroke="#E4E6F2" stroke-width="3.2" stroke-linecap="round"/><path d="M244.977 406.224l22.524 49.21a14.187 14.187 0 0 1-5.363 17.923 9.849 9.849 0 0 1-2.056.978c-5.149 1.755-10.745-.997-12.499-6.146l-18.75-55.036a36.5 36.5 0 0 1-7.009.686c-24.742 0-43.262-16.582-43.262-44.173 0-27.59 20.696-51.266 45.438-51.266s44.8 20.058 44.8 44.8c0 16.504-9.892 33.521-23.823 43.024zM224.4 400c20.103 0 36.4-16.297 36.4-36.4 0-20.103-16.297-36.4-36.4-36.4-20.103 0-36.4 16.297-36.4 36.4 0 20.103 16.297 36.4 36.4 36.4z" fill="#C6CBDE" fill-rule="nonzero"/><path d="M251.242 409.32l1.011 2.068m.878 1.796l20.408 41.731c.15.306.282.619.399.938 1.83 5.022-.758 10.577-5.78 12.407-5.621 2.048-11.85-.76-14.04-6.328l-21.522-54.756A45.08 45.08 0 0 1 224 408c-17.922 0-33.386-10.524-40.55-25.73m-4.25-19.07c0-24.742 20.058-44.8 44.8-44.8 24.742 0 44.8 20.058 44.8 44.8 0 16.174-8.571 30.347-21.42 38.223M224.4 400c20.103 0 36.4-16.297 36.4-36.4 0-20.103-16.297-36.4-36.4-36.4-20.103 0-36.4 16.297-36.4 36.4 0 20.103 16.297 36.4 36.4 36.4z" stroke="#2B2D38" stroke-width="2.4"/><rect fill="#AFEEE0" transform="matrix(-1 0 0 1 503.2 0)" x="223.2" y="260" width="56.8" height="30.4" rx="6.4"/><text transform="matrix(-1 0 0 1 505.2 0)" font-family="AkkuratStd-Bold, Akkurat Std" font-size="19.2" font-weight="bold" fill="#FFF"><tspan x="239.6" y="281.4">A+</tspan></text><path d="M265.757 150.42c22.626-3.746 46.604-16.942 64.738-21.7-8.059-8.482-16.874-26.898-20.59-26.898-.59 0-4.02.707-9.4 1.892-28.457 6.268-111.473 25.91-117.32 25.007-3.604-.557 12.906 15.809 17.702 40.91 19.25-2.786 37.066-7.958 50.308-12.948" fill="#FFF" fill-rule="nonzero"/><path d="M309.655 127.854l3.004 2.839s-26.066 10.01-23.67 7.292c1.596-1.811 8.485-5.189 20.666-10.131zm-104.58 2.95H193.6c8.697 13.59 13.045 23.938 13.045 31.045 10.275 0 14.076-.85 27.364-5.815 13.288-4.965 26.983-4.024 26.153-4.768-17.05-15.265-55.087-20.462-55.087-20.462z" fill="#C6CBDE" fill-rule="nonzero"/><path d="M265.757 150.42c22.626-3.746 46.604-16.942 64.738-21.7-8.059-8.482-16.874-26.898-20.59-26.898m-9.073 1.82c-28.143 6.188-111.778 25.986-117.647 25.079-3.604-.557 12.906 15.809 17.702 40.91 19.25-2.786 37.066-7.958 50.308-12.948" stroke="#2B2D38" stroke-width="2.4" stroke-linecap="round"/><path d="M289.24 136.851c11.71-5.955 21.76-10.192 27.898-13.726-6.357-10.006-19.025-32.029-20.692-30.107-4.063 4.684-30.709 15.445-45.995 20.632-16.201 5.498-36.9 2.82-41.074 2.82m-9.99-.622c-3.129-.462-5.72-1.188-7.952-2.198-4.26-1.926 18.985 30.938 18.985 41.1 0 10.162 31.975-10.732 55.106-4.231" fill="#FFF" fill-rule="nonzero"/><path d="M267.424 148.214c-4.489.669 2.14-3.635 19.887-12.914 7.86-4.109 13.852-6.628 14.74-8.285.89-1.657-1.64-3.135-4.42-4.729-2.38-1.365-8.715-3.174-19.004-5.427l-13.187 23.703 1.984 7.652z" fill="#C6CBDE" fill-rule="nonzero"/><path d="M289.24 136.851c11.71-5.955 21.76-10.192 27.898-13.726-6.357-10.006-19.025-32.029-20.692-30.107m-45.995 20.632c-16.201 5.498-36.9 2.82-41.074 2.82m-9.99-.622c-3.129-.462-5.72-1.188-7.952-2.198-4.26-1.926 18.985 30.938 18.985 41.1 0 10.162 31.975-10.732 55.106-4.231" stroke="#2B2D38" stroke-width="2.4" stroke-linecap="round"/><path d="M217.075 120.8H205.6c7.65 13.456 11.475 23.738 11.475 30.845 6.85 0 16.225-1.887 28.126-5.663L217.075 120.8z" fill="#C6CBDE" fill-rule="nonzero"/><path d="M246.676 107.497c1.377-.594 5.123-3.258 9.607-6.702 4.603-3.537 9.985-7.897 14.38-11.688a188.063 188.063 0 0 0 3.214-2.833c2.164-1.957 3.847-3.603 4.713-4.674 2.09-2.584 28.444 38.382 24.78 40.137-8.215 3.937-20.822 12.472-37.82 25.604a1.6 1.6 0 0 1-1.33.294c-7.761-1.753-13.61-2.777-17.544-3.074-10.855-.817-25.589 5.33-25.589 0 0-4.388-6.715-19.195-20.144-44.422a1.6 1.6 0 0 1 1.83-2.297c18.188 4.908 29.588 7.821 34.202 8.739" stroke="#2B2D38" stroke-width="2.4" fill="#FFF" fill-rule="nonzero" stroke-linecap="round"/><path fill="#FAEBA1" d="M256 110l21.49-15.6 14.232 23.287-25.472 15.247z"/><path d="M248.442 109.724L260 134.4m2.042 4.924l.758 1.476" stroke="#2B2D38" stroke-width="3.2" fill="#FFF" fill-rule="nonzero" stroke-linecap="round"/><path d="M216.8 111.2l26.62 5.682M221.6 120l23.6 4.4m-18.8 3.6l14.523 2.387" stroke="#E4E6F2" stroke-width="3.2" stroke-linecap="round"/><circle fill="#FFF" fill-rule="nonzero" cx="276.8" cy="108.8" r="4.8"/><path d="M267.2 116.8l1.312 9.855 7.812-5.81-9.124-4.045z" fill="#FFF" fill-rule="nonzero"/><path d="M290.664 35.265c-3.984-3.097-5.868-8.17-5.444-8.17.61 0-10.722 14.112-1.75 14.112 8.97 0 22.73-5.42 22.73-14.112 0-8.69 16.115 23.098 29.748 28.692 5.877 2.411 10.531.405 9.546 2.678-.507 1.172-2.102 2.554-3.286 3.282m-2.876 2.108c-.733.48-.831.654-1.607 1.121m-5.772 3.183c-2.267 1.248-2.83 1.69-4.746 2.408-4.358 1.633-13.505 1.633-21.007-4.335-11.501-9.15-19.06-23.81-24.04-25.025-1.345-.328 3.06.5 7.372-.712 5.71-1.605 8.967-2.888 7.585-2.888" stroke="#2B2D38" stroke-width="2.4" fill="#FFF" fill-rule="nonzero" stroke-linecap="round"/><path d="M296.8 50.402c6.722-.989 11.492-3.39 14.31-7.202m-7.374 13.6c5.61-.666 9.314-2.27 11.11-4.811" stroke="#E4E6F2" stroke-width="3.2" stroke-linecap="round"/><path d="M38.552 182.14c28.095-17.122 50.188-32.146 58.963-35.681 3.392 5.371 21.093 32.16 53.106 80.365l-50.151 38.82c-31.658-42.403-52.297-70.237-61.918-83.504z" fill="#FFF"/><path d="M68.682 191.888c3.75-2.227 6.674-3.974 8.77-5.241 3.144-1.9-4.692-13.372 1.118-15.983 5.81-2.61 17.626 20.748 23.039 17.672 5.412-3.076-3.173-14.326-.366-16.086 1.67-1.047 4.416-2.8 8.238-5.257" stroke="#E4E6F2" stroke-width="3.2" stroke-linecap="round"/><path d="M34.419 176.272a3.2 3.2 0 0 1 .797-4.535l62.877-42.436.043-.028a3.2 3.2 0 0 1 4.428.934l34.898 53.554 4.115 6.316 3.67 5.633 7.47 11.464 8.061 12.37a3.2 3.2 0 0 1-.783 4.324l-56.615 41.704-.015.011a3.2 3.2 0 0 1-4.47-.704l-25.14-34.549-39.336-54.058zm6.33 1.724l51.486 69.573a3.2 3.2 0 0 0 4.47.673l50.164-36.952a3.2 3.2 0 0 0 .78-4.33l-45.957-70.206a3.2 3.2 0 0 0-4.468-.9L41.532 173.44a3.2 3.2 0 0 0-.782 4.556z" fill="#FFF" fill-rule="nonzero"/><path d="M138.145 183.527l-35.495-54.472a3.255 3.255 0 0 0-4.504-.95c-.01.006-22.696 16.058-43.538 30.124m-12.796 29.179c.015.02 4.833 6.787 31.536 43.485l25.57 35.14a3.255 3.255 0 0 0 4.547.717l57.6-42.43a3.255 3.255 0 0 0 .796-4.398l-8.199-12.582m-10.464-16.212l-1.433-2.276" stroke="#2B2D38" stroke-width="2.4" stroke-linecap="round"/><circle fill="#C6CBDE" fill-rule="nonzero" cx="128.735" cy="236.735" r="5.535"/><path d="M82.952 217.955l23.12-16.205m-17.718 23.91l35.728-24.98M105.6 225.6l16-11.2" fill-rule="nonzero" stroke="#E4E6F2" stroke-linecap="round" stroke-width="3.2"/><path d="M405.605 152.51c-15.576 48.745-24.746 72.165-27.514 70.278-21.19-19.088-43.54-24.65-40.94-25.915 11.173-6.937 21.584-25.526 31.232-55.765a1.6 1.6 0 0 1 1.992-1.044l22.004 6.729" stroke="#2B2D38" stroke-width="2.4" fill="#FFF" fill-rule="nonzero" stroke-linecap="round"/><path d="M376.8 157.314c6.146 1.7 16.34 5.469 21.6 6.637m-27.2.563c4.663 1.342 12.01 4.195 16 5.117" stroke="#E4E6F2" stroke-width="3.2" stroke-linecap="round"/><path d="M414.385 132.435c-2.282 25.59-19.343 43.368-51.185 53.336 7.934 11.163 8.293 21.747 15.135 30.66 1.473 1.919 4.51 2.205 6.573 4.141 20.624-4.322 80.662-27.358 80.662-76.661-10.593-11.821-27.655-15.646-51.185-11.476z" fill="#C6CBDE" fill-rule="nonzero"/><path d="M426.986 122.444c-6.41 3.586-13.995 9.268-14.03 10.97-.551 26.818-14.982 35.8-43.861 44.84 9.642 13.566 14.328 40.881 25.983 51.814 20.623-4.323 78.444-40.742 78.444-90.046-9.382-10.469-24.06-9.359-38.067-20.399" stroke="#2B2D38" stroke-width="2.4" fill="#FFF" fill-rule="nonzero" stroke-linecap="round"/><path d="M419.475 221.768c25.028-16.236 55.725-46.992 55.725-82.257-9.381-10.47-19.543-15.089-38.934-19.977-3.221-.812-5.628 16.695-8.508 13.995-2.88-2.7-14.718-2.7-15.212 0-3.187 17.413-14.572 35.685-43.451 44.725 9.642 13.566 13.827 44.438 25.482 55.37 2.507-.526 5.597-1.586 9.09-3.131m4.78-2.293a114.75 114.75 0 0 0 4.349-2.36" stroke="#2B2D38" stroke-width="2.4" fill="#FFF" fill-rule="nonzero" stroke-linecap="round"/><path d="M449.722 169.021l-30.328-11.642m33.477 1.351l-17.976-5.066m9.482 25.102l-30.192-14.524" fill-rule="nonzero" stroke="#E4E6F2" stroke-linecap="round" stroke-width="3.2"/><path d="M412.765 204.026a359.85 359.85 0 0 0-6.276-10.709 506.502 506.502 0 0 1 11.147-6.278c-7.294-9.313-15.688-5.55-19.639-2.615-3.95 2.935-8.44 9.272-3.097 16.362 5.342 7.09 14.385 7.66 17.865 3.24z" fill="#F1F2FA"/><path d="M411.26 194.362l9.372-5.015c3.707 5.305 2.685 9.556-3.068 12.753-3.229-4.576-6.304-7.738-6.304-7.738z" fill="#F1F2FA"/><path d="M378.831 125.976c-11.888-2.81-23.777-4.216-35.666-4.216m-146.879 87.546c10.05-5.008 28.338-9.936 48.031-13.036a284.313 284.313 0 0 1 18.593-2.312m10.276-.711c3.17-.15 6.29-.229 9.33-.229m92.485-126.596c58.201 11.877 97.267 29.646 117.2 53.308" stroke="#8189A9" stroke-width="2.4" stroke-linecap="round"/></g></svg>