<svg width="502" height="334" viewBox="0 0 502 334" xmlns="http://www.w3.org/2000/svg"><g fill="none" fill-rule="evenodd"><path d="M267.545 299.149C149.073 318.809 44.3 265.834 62.34 164.494c13.03-73.196 89.627-143.521 205.205-73.99 75.896 45.658 109.158 18.114 142.904 5.754 29.76-10.9 86.926-12.974 90.803 43.144 3.878 56.117-163.452 148.087-233.707 159.747z" fill="#F1F2FA" fill-rule="nonzero"/><path d="M238.296 249.187c3.737-22.864 7.466-46.615 17.604-74.047-5.599-1.04-16.482-2.244-29.227-3.54-30.14-3.066-70.69-6.653-76.379-9.848-7.743 11.18-21.975 59.914-59.858 140.478 38.706 14.317 100.379 33.859 122.884 31.01a198.6 198.6 0 0 0 8.78-18.85c6.82-16.92 10.527-32.941 13.455-49.077" fill="#FFF"/><path d="M229.578 218.874c1.905-10.721 6.22-27.504 12.946-50.348a4.752 4.752 0 0 0-3.94-6.053c-8.76-1.152-16.665-2.086-23.712-2.803-19.26-1.959-43.45-5.056-72.57-9.291a4.752 4.752 0 0 0-5.139 3.05c-14.52 39.147-34.028 84.77-58.528 136.872 38.706 14.316 100.379 33.858 122.884 31.01a198.6 198.6 0 0 0 8.78-18.85c5.144-12.761 7.244-21.41 9.848-33.584m2.22-8.189c.485-2.434.251-1.216.693-3.652" stroke="#3B3E4D" stroke-width="3.168" fill="#FFF" fill-rule="nonzero" stroke-linecap="round"/><path d="M96.744 229.168c-3.162 3.9-6.425 7.887-9.787 11.952-3.194 3.861 14.553 7.2 15.373 11.837.82 4.638-13.965 14.147-7.95 20.371 21.167 14.278 81.887 44.901 84.16 44.902 3.408 0 9.382 2.097 10.59.002 28.755-49.834 39.64-92.545 51.446-115.414 4.251-8.235-7.254-15.566-2.57-24.5.419-1.38 1.239-3.998 1.77-6.213-4.642-2.751-23.511-8.058-56.608-15.92a5.533 5.533 0 0 0-6.482 1.75l-60.51 46.764m-3.248 4.354l-1.448 1.74m-3.304 4.096l-1.876 2.38" fill="#E4E6F2"/><path d="M80.926 235.495c-3.162 3.9-6.425 7.887-9.787 11.952-3.194 3.861 14.553 7.2 15.373 11.838.82 4.637-13.965 14.147-7.95 20.37 21.167 14.278 50.772 29.763 88.815 46.454a4.743 4.743 0 0 0 6.014-1.973c28.754-49.834 49.034-86.185 60.84-109.054a4587.33 4587.33 0 0 1 13.404-25.753 4.75 4.75 0 0 0-1.999-6.41c-.089-.047-30.158-12.341-90.207-36.883a5.533 5.533 0 0 0-6.481 1.751l-48.59 63.239m-3.248 4.354l-1.448 1.74m-3.304 4.096l-1.876 2.38" stroke="#3B3E4D" stroke-width="2.693" fill="#AFEEE0" stroke-linecap="round"/><path d="M137.599 186.145l41.637 19.512m-52.514-.97l74.001 37.175m-83.521-19.681l72.914 38.483m-60.959-10.765l4.736 2.673m7.028 3.891l39.774 21.683" fill-rule="nonzero" stroke="#FFF" stroke-linecap="round" stroke-width="3.168"/><g fill-rule="nonzero"><path d="M405.392 264.961c-1.09-1.578-40.789 25.448-60.486 15.021-28.42-15.045-72.092-40.092-77.104-42.317-9.938-4.411-22.354 7.531-32.06 11.161-9.706 3.63-12.774-5.477-7.103-8.816 5.67-3.339 16.427-7.142 13.941-11.594-2.486-4.452-13.949-7.783-19.922-10.476-11.39-5.134-19.7-11.174-13.825-13.768 2.889-1.276 14.682 4.386 26.9 9.43 12.218 5.043-10.674-4.702-19.553-7.907-8.702-3.141-10.575-5.08-10.576-6.94 0-3.546 3.064-3.067 7.027-1.738 15.193 5.097 36.423 14.134 32.208 12.236-4.215-1.898-26-10.224-31.158-12.236-.806-.314-1.952-3.465 2.92-3.463 6.945.002 18 4.788 29.221 8.668 8.951 3.483 5.216 2.057-1.577-.574-6.214-2.407-14.187-5.112-14.187-6.268 0-1.823.864-2.86 3.404-2.52 4.688.627 15.593 7.027 36.941 15.224m11.839 4.004a336.927 336.927 0 0 1 8.028 3.604m9.174 4.433c10.93 5.487 99.423 40.457 105.948 44.836" fill="#FFF"/><path d="M322.92 267.381c-2.353-3.403-44.228-24.186-53.571-28.334-9.938-4.411-25.192 4.91-34.898 8.54-9.707 3.63-12.774-5.212-7.103-8.55 5.67-3.34 16.427-7.143 13.94-11.595-2.485-4.452-13.948-7.783-19.921-10.476-11.39-5.134-19.7-11.174-13.826-13.768 2.89-1.276 14.682 4.386 26.9 9.43 12.218 5.043-10.674-4.702-19.553-7.907-8.701-3.141-10.575-5.08-10.575-6.94-.001-3.546 3.064-3.067 7.026-1.738 15.193 5.097 36.424 14.134 32.209 12.236-4.215-1.898-26-10.224-31.158-12.236-.806-.314-1.952-3.465 2.919-3.463 6.946.001 17.388 5.47 28.61 9.351 8.95 3.483 5.215 2.057-1.577-.574-6.215-2.407-13.634-5.015-13.634-6.172 0-1.822.425-2.602 2.786-2.601 4.474.001 21.387 6.768 42.586 15.703m11.112 4.354a336.93 336.93 0 0 1 8.029 3.604m9.174 4.433c10.93 5.487 94.777 37.857 101.302 42.236" stroke="#3B3E4D" stroke-width="3.168" stroke-linecap="round"/></g><path d="M12.238 193.312c4.317 5.119 8.612 8.457 12.886 10.015M8.79 174.556c10.42 9.532 21.126 15.462 32.119 17.791M2.414 205.89c7.866 9.71 18.168 15.15 32.083 18.21" fill-rule="nonzero" stroke="#C6CBDE" stroke-linecap="round" stroke-width="3.168"/><path d="M226.378 11.69l54.455 55.897a4.752 4.752 0 0 1-2.255 7.927L208.682 92.93a4.752 4.752 0 0 1-5.799-5.59l15.441-73.315a4.752 4.752 0 0 1 8.054-2.337z" fill="#FAEBA1"/><path d="M227.657 26.072L235.808 54m1.566 5.367l1.362 4.665" stroke="#2B2D38" stroke-width="2.693"/><path d="M274.338 53.824l5.713 5.864a4.743 4.743 0 0 1-2.253 7.915l-69.913 17.42a4.748 4.748 0 0 1-5.795-5.58l15.445-73.334a4.748 4.748 0 0 1 8.048-2.332l24.077 24.715m3.515 3.608l3.298 3.385" stroke="#3B3E4D" stroke-width="2.851"/></g></svg>